<svg id="svg" xmlns="http://www.w3.org/2000/svg" xmlns:xlink="http://www.w3.org/1999/xlink" width="400" height="400" viewBox="0, 0, 400,400" version="1.1"><g id="svgg"><path id="path0" d="M0.000 41.200 L 0.000 82.400 30.967 82.400 C 47.999 82.400,62.219 82.509,62.567 82.643 C 63.140 82.863,63.200 88.503,63.200 142.443 C 63.200 189.827,63.302 201.998,63.700 201.991 C 63.975 201.986,65.128 200.574,66.261 198.852 C 81.015 176.453,105.045 163.982,133.400 164.009 C 178.956 164.052,204.885 183.530,212.431 223.378 C 215.149 237.730,214.943 230.284,215.091 319.500 L 215.224 400.000 246.812 400.000 L 278.400 400.000 278.401 347.300 C 278.403 282.986,278.659 277.740,282.433 264.600 C 292.002 231.278,317.761 218.265,361.500 224.657 L 363.200 224.905 363.200 195.505 L 363.200 166.105 360.900 165.475 C 332.348 157.650,294.291 177.064,278.528 207.498 C 277.132 210.191,275.858 212.441,275.695 212.498 C 275.533 212.554,275.310 203.060,275.200 191.400 L 275.000 170.200 245.100 170.097 L 215.200 169.995 215.200 84.997 L 215.200 0.000 107.600 0.000 L 0.000 0.000 0.000 41.200 M102.400 214.626 C 80.739 217.659,69.333 229.856,65.019 254.600 C 63.470 263.484,63.467 263.623,63.316 332.500 L 63.169 400.000 107.585 400.000 L 152.000 400.000 151.996 331.100 C 151.991 251.842,152.018 252.519,148.401 239.929 C 142.603 219.750,127.021 211.179,102.400 214.626 " stroke="none" fill="#d42424" fill-rule="evenodd"></path><path id="path1" d="M215.200 84.997 L 215.200 169.995 245.100 170.097 L 275.000 170.200 275.200 191.400 C 275.311 203.151,275.554 212.511,275.746 212.400 C 275.936 212.290,277.211 210.040,278.578 207.400 C 294.290 177.068,332.394 157.662,360.900 165.475 L 363.200 166.105 363.200 195.505 L 363.200 224.905 361.500 224.657 C 317.761 218.265,292.002 231.278,282.433 264.600 C 278.659 277.740,278.403 282.986,278.401 347.300 L 278.400 400.000 339.200 400.000 L 400.000 400.000 400.000 200.000 L 400.000 0.000 307.600 0.000 L 215.200 0.000 215.200 84.997 M0.000 241.200 L 0.000 400.000 31.585 400.000 L 63.169 400.000 63.316 332.500 C 63.467 263.623,63.470 263.484,65.019 254.600 C 69.868 226.790,84.566 214.000,111.677 214.000 C 134.589 214.000,145.829 223.968,150.386 248.329 C 151.914 256.496,151.992 260.498,151.996 331.100 L 152.000 400.000 183.612 400.000 L 215.224 400.000 215.091 319.500 C 214.943 230.284,215.149 237.730,212.431 223.378 C 204.885 183.530,178.956 164.052,133.400 164.009 C 105.045 163.982,81.015 176.453,66.261 198.852 C 65.128 200.574,63.975 201.986,63.700 201.991 C 63.302 201.998,63.200 189.827,63.200 142.443 C 63.200 88.503,63.140 82.863,62.567 82.643 C 62.219 82.509,47.999 82.400,30.967 82.400 L 0.000 82.400 0.000 241.200 " stroke="none" fill="#fcfbfb" fill-rule="evenodd"></path></g></svg>