<?xml version="1.0" encoding="utf-8"?>
<svg viewBox="50.1729 49.8019 399.6542 400.3961" xmlns="http://www.w3.org/2000/svg">
  <g transform="matrix(1, 0, 0, 1, -6.8372650146484375, 25.547250747680664)">
    <g id="svgg" transform="matrix(1, 0, 0, 1, 56.658752, 24.544088)">
      <path id="path0" d="M182.000 0.790 C -4.590 20.826,-66.350 257.107,86.885 364.680 C 205.398 447.877,372.229 376.760,397.192 232.400 C 419.154 105.398,309.265 -12.876,182.000 0.790 M161.648 77.400 C 161.674 79.050,162.171 94.980,162.752 112.800 C 163.793 144.721,163.785 145.218,162.235 146.400 C 152.814 153.582,150.816 157.047,150.820 166.194 L 150.824 172.789 158.986 188.994 C 195.582 261.648,200.983 268.198,218.804 261.530 C 221.770 260.420,223.591 260.118,224.234 260.629 C 224.765 261.052,237.260 270.847,252.000 282.395 C 266.740 293.943,278.800 303.758,278.800 304.205 C 278.800 307.136,246.320 319.552,236.199 320.489 C 207.901 323.110,177.973 300.915,142.971 251.351 C 120.321 219.278,110.685 185.468,109.069 132.400 C 107.947 95.553,123.418 78.170,160.600 74.499 C 161.232 74.436,161.618 75.503,161.648 77.400 M176.304 76.033 C 178.704 76.931,182.170 79.001,184.005 80.633 L 187.342 83.600 187.791 108.864 L 188.241 134.129 185.171 137.527 C 179.948 143.308,171.293 146.666,170.030 143.400 C 169.419 141.821,168.078 103.178,168.031 85.800 L 168.000 74.400 169.970 74.400 C 171.053 74.400,173.904 75.135,176.304 76.033 M249.312 247.595 C 252.862 249.079,256.689 251.846,274.536 265.835 C 292.589 279.985,292.375 279.606,288.842 291.157 C 285.933 300.668,286.010 300.517,284.619 299.433 C 264.999 284.128,228.800 254.894,228.800 254.353 C 228.800 253.306,242.433 246.489,244.626 246.440 C 245.630 246.418,247.739 246.938,249.312 247.595 " stroke="none" fill="#000000" fill-rule="evenodd"/>
    </g>
    <rect x="133.394" y="91.21" width="237.962" height="261.773" style="stroke: rgb(0, 0, 0);"/>
  </g>
  <g style="" transform="matrix(15.33154296875, 0, 0, 15.33154296875, -3869.37109375, -3256.89111328125)">
    <g>
      <path d="M 260.686 224.737 C 260.686 223.633 261.581 222.737 262.686 222.737 L 274.686 222.737 C 275.79 222.737 276.686 223.633 276.686 224.737 L 276.686 232.737 C 276.686 233.842 275.79 234.737 274.686 234.737 L 262.686 234.737 C 261.581 234.737 260.686 233.842 260.686 232.737 L 260.686 224.737 Z M 262.686 223.737 C 262.133 223.737 261.686 224.185 261.686 224.737 L 261.686 224.954 L 268.686 229.154 L 275.686 224.954 L 275.686 224.737 C 275.686 224.185 275.238 223.737 274.686 223.737 L 262.686 223.737 Z M 275.686 226.12 L 270.978 228.945 L 275.686 231.842 L 275.686 226.12 Z M 275.652 232.996 L 270.012 229.525 L 268.686 230.32 L 267.36 229.525 L 261.72 232.995 C 261.836 233.433 262.233 233.737 262.686 233.737 L 274.686 233.737 C 275.138 233.737 275.534 233.433 275.652 232.996 M 261.686 231.842 L 266.394 228.945 L 261.686 226.12 L 261.686 231.842 Z" style="fill: rgb(255, 255, 255);"/>
    </g>
  </g>
</svg>