<svg id="svg" xmlns="http://www.w3.org/2000/svg" xmlns:xlink="http://www.w3.org/1999/xlink" width="400" height="400" viewBox="0, 0, 400,400"><g id="svgg"><path id="path0" d="M182.000 0.790 C -4.590 20.826,-66.350 257.107,86.885 364.680 C 205.398 447.877,372.229 376.760,397.192 232.400 C 419.154 105.398,309.265 -12.876,182.000 0.790 M161.648 77.400 C 161.674 79.050,162.171 94.980,162.752 112.800 C 163.793 144.721,163.785 145.218,162.235 146.400 C 152.814 153.582,150.816 157.047,150.820 166.194 L 150.824 172.789 158.986 188.994 C 195.582 261.648,200.983 268.198,218.804 261.530 C 221.770 260.420,223.591 260.118,224.234 260.629 C 224.765 261.052,237.260 270.847,252.000 282.395 C 266.740 293.943,278.800 303.758,278.800 304.205 C 278.800 307.136,246.320 319.552,236.199 320.489 C 207.901 323.110,177.973 300.915,142.971 251.351 C 120.321 219.278,110.685 185.468,109.069 132.400 C 107.947 95.553,123.418 78.170,160.600 74.499 C 161.232 74.436,161.618 75.503,161.648 77.400 M176.304 76.033 C 178.704 76.931,182.170 79.001,184.005 80.633 L 187.342 83.600 187.791 108.864 L 188.241 134.129 185.171 137.527 C 179.948 143.308,171.293 146.666,170.030 143.400 C 169.419 141.821,168.078 103.178,168.031 85.800 L 168.000 74.400 169.970 74.400 C 171.053 74.400,173.904 75.135,176.304 76.033 M249.312 247.595 C 252.862 249.079,256.689 251.846,274.536 265.835 C 292.589 279.985,292.375 279.606,288.842 291.157 C 285.933 300.668,286.010 300.517,284.619 299.433 C 264.999 284.128,228.800 254.894,228.800 254.353 C 228.800 253.306,242.433 246.489,244.626 246.440 C 245.630 246.418,247.739 246.938,249.312 247.595 " stroke="none" fill="#000000" fill-rule="evenodd"></path></g></svg>