<?xml version="1.0" ?><svg data-name="Layer 1" id="Layer_1" viewBox="0 0 512 512" xmlns="http://www.w3.org/2000/svg"><title/><path d="M256,0C114.615,0,0,114.615,0,256S114.615,512,256,512,512,397.385,512,256,397.385,0,256,0ZM372.6,236.93c-21.958,47.491-68.426,100.086-82.725,111.831s-35.744,31.32-53.787,29.958-31.661-20.425-39.83-45.277S178.9,267.4,170.724,241.526s-18.979-31.659-23.83-28.979S128.639,224.8,128.639,224.8L116,208.079c28-26.639,69.958-62.554,89.874-56.426s27.575,41.107,30.383,60.511,6.383,41.362,9.192,54.9c6.692,32.248,16.681,37.106,34.723,14.3,18.158-22.954,29.107-48,25.532-65.873s-35.234-8.17-35.234-8.17c13.277-46.469,44.426-60.767,76.086-60.767S394.557,189.441,372.6,236.93Z"/></svg>